<svg width="38" height="38" viewBox="0 0 38 38" fill="none" xmlns="http://www.w3.org/2000/svg">
<circle cx="19.0732" cy="18.8634" r="17.9861" stroke="#001933" stroke-width="1.75474"/>
<path d="M19.3726 14.4145C21.7477 14.4145 23.708 16.3749 23.708 18.75C23.708 21.1628 21.7477 23.0854 19.3726 23.0854C16.9598 23.0854 15.0371 21.1628 15.0371 18.75C15.0371 16.3749 16.9598 14.4145 19.3726 14.4145ZM19.3726 21.5774C20.9183 21.5774 22.1623 20.3334 22.1623 18.75C22.1623 17.2043 20.9183 15.9602 19.3726 15.9602C17.7892 15.9602 16.5451 17.2043 16.5451 18.75C16.5451 20.3334 17.8269 21.5774 19.3726 21.5774ZM24.8767 14.2638C24.8767 13.6983 24.4243 13.2459 23.8588 13.2459C23.2933 13.2459 22.8409 13.6983 22.8409 14.2638C22.8409 14.8292 23.2933 15.2816 23.8588 15.2816C24.4243 15.2816 24.8767 14.8292 24.8767 14.2638ZM27.7419 15.2816C27.8173 16.6765 27.8173 20.8612 27.7419 22.256C27.6665 23.6132 27.3649 24.7819 26.3847 25.7998C25.4045 26.78 24.1981 27.0816 22.8409 27.157C21.4461 27.2324 17.2614 27.2324 15.8665 27.157C14.5094 27.0816 13.3407 26.78 12.3228 25.7998C11.3426 24.7819 11.041 23.6132 10.9656 22.256C10.8902 20.8612 10.8902 16.6765 10.9656 15.2816C11.041 13.9245 11.3426 12.7181 12.3228 11.7379C13.3407 10.7577 14.5094 10.4561 15.8665 10.3807C17.2614 10.3053 21.4461 10.3053 22.8409 10.3807C24.1981 10.4561 25.4045 10.7577 26.3847 11.7379C27.3649 12.7181 27.6665 13.9245 27.7419 15.2816ZM25.9323 23.7263C26.3847 22.633 26.2716 19.9941 26.2716 18.75C26.2716 17.5436 26.3847 14.9046 25.9323 13.7737C25.6307 13.0574 25.0652 12.4542 24.3489 12.1903C23.2179 11.7379 20.579 11.851 19.3726 11.851C18.1285 11.851 15.4895 11.7379 14.3963 12.1903C13.6423 12.4919 13.0768 13.0574 12.7752 13.7737C12.3228 14.9046 12.4359 17.5436 12.4359 18.75C12.4359 19.9941 12.3228 22.633 12.7752 23.7263C13.0768 24.4803 13.6423 25.0458 14.3963 25.3474C15.4895 25.7998 18.1285 25.6867 19.3726 25.6867C20.579 25.6867 23.2179 25.7998 24.3489 25.3474C25.0652 25.0458 25.6684 24.4803 25.9323 23.7263Z" fill="#001933"/>
</svg>
