<svg width="38" height="38" viewBox="0 0 38 38" fill="none" xmlns="http://www.w3.org/2000/svg">
<circle cx="18.8634" cy="18.8634" r="17.9861" stroke="#001933" stroke-width="1.75474"/>
<path d="M18.2581 27.9487C16.2977 25.4983 11.9246 19.6549 11.9246 16.3373C11.9246 12.3412 15.129 9.09902 19.1629 9.09902C23.159 9.09902 26.4012 12.3412 26.4012 16.3373C26.4012 19.6549 21.9903 25.4983 20.03 27.9487C19.5776 28.5142 18.7105 28.5142 18.2581 27.9487ZM19.1629 18.7501C20.4823 18.7501 21.5756 17.6945 21.5756 16.3373C21.5756 15.0178 20.4823 13.9245 19.1629 13.9245C17.8057 13.9245 16.7501 15.0178 16.7501 16.3373C16.7501 17.6945 17.8057 18.7501 19.1629 18.7501Z" fill="#001933"/>
</svg>
