<svg width="38" height="38" viewBox="0 0 38 38" fill="none" xmlns="http://www.w3.org/2000/svg">
<circle cx="18.9683" cy="18.8634" r="17.9861" stroke="#001933" stroke-width="1.75474"/>
<path d="M25.1488 12.7935C26.7322 14.3768 27.7124 16.4503 27.7124 18.7123C27.7124 23.3116 23.8671 27.0816 19.23 27.0816C17.8351 27.0816 16.478 26.7046 15.2339 26.0637L10.823 27.1947L11.9917 22.8592C11.2754 21.6151 10.8607 20.1826 10.8607 18.6746C10.8607 14.0753 14.6307 10.3053 19.23 10.3053C21.492 10.3053 23.6032 11.2101 25.1488 12.7935ZM19.23 25.649C23.0754 25.649 26.2798 22.5199 26.2798 18.7123C26.2798 16.8273 25.4881 15.0931 24.1687 13.7737C22.8492 12.4542 21.115 11.7379 19.2677 11.7379C15.4224 11.7379 12.2933 14.8669 12.2933 18.6746C12.2933 19.9941 12.6703 21.2758 13.3489 22.4068L13.5374 22.6707L12.8211 25.2343L15.4601 24.518L15.6863 24.6688C16.7796 25.3097 17.9859 25.649 19.23 25.649ZM23.0754 20.4465C23.2639 20.5596 23.4147 20.5973 23.4524 20.7104C23.5278 20.7858 23.5278 21.2005 23.3393 21.6905C23.1508 22.1806 22.3214 22.633 21.9444 22.6707C21.2658 22.7838 20.738 22.7461 19.4185 22.1429C17.3074 21.2382 15.9502 19.127 15.8371 19.0139C15.724 18.8631 15.0077 17.8829 15.0077 16.8273C15.0077 15.8094 15.5355 15.3193 15.724 15.0931C15.9125 14.8669 16.1387 14.8292 16.2895 14.8292C16.4026 14.8292 16.5534 14.8292 16.6665 14.8292C16.8173 14.8292 16.9681 14.7915 17.1566 15.2062C17.3074 15.6209 17.7597 16.6388 17.7974 16.7519C17.8351 16.865 17.8728 16.9781 17.7974 17.1289C17.4205 17.9206 16.9681 17.8829 17.1943 18.2599C18.0236 19.6548 18.8153 20.1449 20.0594 20.7481C20.2479 20.8612 20.361 20.8235 20.5118 20.7104C20.6249 20.5596 21.0396 20.0695 21.1527 19.881C21.3035 19.6548 21.4543 19.6925 21.6428 19.7679C21.8313 19.8433 22.8492 20.3334 23.0754 20.4465Z" fill="#001933"/>
</svg>
