<svg width="50" height="56" viewBox="0 0 50 56" fill="none" xmlns="http://www.w3.org/2000/svg">
<g clip-path="url(#clip0_492_1223)">
<path d="M37.4514 29.9976C30.4821 29.9976 24.9028 35.775 24.9028 43.0008C24.9028 50.2266 30.4782 56.004 37.4514 56.004C44.4245 56.004 49.9999 50.2266 49.9999 43.0008C49.9999 35.775 44.4245 29.9976 37.4514 29.9976ZM37.4514 47.1287C35.0597 47.1287 33.2698 45.2699 33.2698 42.7956C33.2698 40.3213 35.0636 38.4625 37.4514 38.4625C39.8392 38.4625 41.6329 40.3213 41.6329 42.7956C41.6329 45.2699 39.8392 47.1287 37.4514 47.1287Z" fill="#CCE5FF"/>
<path d="M37.4514 0C30.4821 0 24.9028 5.77743 24.9028 13.0032C24.9028 20.229 30.4782 26.0065 37.4514 26.0065C44.4245 26.0065 49.9999 20.229 49.9999 13.0032C49.9999 5.78145 44.4245 0 37.4514 0ZM37.4514 17.1311C35.0597 17.1311 33.2698 15.2724 33.2698 12.798C33.2698 10.3237 35.0636 8.46498 37.4514 8.46498C39.8392 8.46498 41.6329 10.3237 41.6329 12.798C41.6329 15.2724 39.8392 17.1311 37.4514 17.1311Z" fill="#CCE5FF"/>
<path d="M12.5485 14.862C5.5754 14.862 0 20.6394 0 27.8612C0 35.083 5.5754 40.8644 12.5485 40.8644C19.5217 40.8644 25.0971 35.087 25.0971 27.8612C25.0971 20.6354 19.5217 14.858 12.5485 14.858M12.5485 31.9891C10.1569 31.9891 8.36698 30.1303 8.36698 27.656C8.36698 25.1817 10.1607 23.3229 12.5485 23.3229C14.9363 23.3229 16.7301 25.1817 16.7301 27.656C16.7301 30.1303 14.9363 31.9891 12.5485 31.9891Z" fill="#CCE5FF"/>
</g>
<defs>
<clipPath id="clip0_492_1223">
<rect width="50" height="56" fill="white"/>
</clipPath>
</defs>
</svg>
